<svg width="114" height="105" viewBox="0 0 114 105" fill="none" xmlns="http://www.w3.org/2000/svg">
<rect x="9.11792" y="12.3525" width="104.882" height="92.6471" rx="17.2941" fill="#6C5FBC"/>
<rect x="2.5" y="2.5" width="99.8821" height="87.6471" rx="14.7941" fill="#DBD9EE" stroke="#6C5FBC" stroke-width="5"/>
<path d="M80.9536 29.9033L24.1257 29.652" stroke="#6C5FBC" stroke-width="5.17202" stroke-linecap="round" stroke-linejoin="round"/>
<path d="M80.9188 41.2812L68.2801 41.2253C63.0524 41.2022 58.8244 36.0853 58.8436 29.805C58.8629 23.5248 63.1221 18.4454 68.3498 18.4685L80.9885 18.5244" stroke="#6C5FBC" stroke-width="5.17202" stroke-linecap="round" stroke-linejoin="round"/>
<path d="M43.0799 66.3086L26.5678 66.1247C25.2148 66.1188 24.0811 64.7839 24.0554 63.1583L23.9455 58.8726C23.9199 57.1732 25.0621 55.7376 26.4766 55.7438L42.8042 55.9268L43.0799 66.3086Z" stroke="#6C5FBC" stroke-width="5.17202" stroke-linecap="round" stroke-linejoin="round"/>
<path d="M69.0149 72.4831L45.6754 72.1951C44.3223 72.1892 43.1886 70.8542 43.1628 69.2286L42.8654 55.8908L80.7806 56.3539L80.8061 58.0535C80.9967 66.1079 75.6876 72.5865 69.0149 72.4831Z" stroke="#6C5FBC" stroke-width="5.17202" stroke-linecap="round" stroke-linejoin="round"/>
</svg>
